<?xml version="1.0" encoding="utf-8"?>
<!-- Generator: Adobe Illustrator 21.0.2, SVG Export Plug-In . SVG Version: 6.00 Build 0)  -->
<svg version="1.1" id="Calque_1" xmlns="http://www.w3.org/2000/svg" xmlns:xlink="http://www.w3.org/1999/xlink" x="0px" y="0px"
	 viewBox="0 0 64 58" style="enable-background:new 0 0 64 58;" xml:space="preserve">
<style type="text/css">
	.st0{clip-path:url(#SVGID_2_);fill:#FFFFFF;}
</style>
<g>
	<defs>
		<rect id="SVGID_1_" x="0" y="0.7" width="63.7" height="57.3"/>
	</defs>
	<clipPath id="SVGID_2_">
		<use xlink:href="#SVGID_1_"  style="overflow:visible;"/>
	</clipPath>
	<path class="st0" d="M53.3,11.7V8.6l7.7,3.5L53.3,11.7z M26.3,55.9l-4.5-19.7h11.5L26.3,55.9z M33.3,35.3H21.7l1.3-8.9l8.5,3.9
		L33.3,35.3z M1.5,5l20.9,3.7l19.5,14.6l0.3,6.2H32l-17.5-8L1.5,5z M34.1,35.1l-1.6-4.6h8.7L34.1,35.1z M36.9,5.3l7.8,9.4l-2.6,7.7
		l-13-9.8L36.9,5.3z M44.7,13.4l-7-8.5l7-3V13.4z M52.4,11.8l-6.7,2.2V2.1l6.7,6V11.8z M63.5,12.3L53.1,7.5l-7.6-6.7
		c-0.1-0.1-0.3-0.1-0.5-0.1l-8.2,3.6c0,0-0.1,0-0.1,0.1l-8.2,7.8L22.9,8c-0.1,0-0.1-0.1-0.2-0.1L0.5,3.9C0.3,3.9,0.2,4,0.1,4.2
		C0,4.3,0,4.5,0.1,4.7l13.8,17.5c0,0.1,0.1,0.1,0.2,0.1l8.1,3.7l-1.4,9.7c0,0.1,0,0.1,0,0.2l5,21.8c0,0.2,0.2,0.3,0.4,0.3
		c0,0,0,0,0,0c0.2,0,0.4-0.1,0.4-0.3l7.6-21.6l8.7-5.7c0.1-0.1,0.2-0.2,0.2-0.4l-0.4-6.8l2.7-8.2l7.3-2.4l10.4,0.5c0,0,0,0,0,0
		c0.2,0,0.4-0.1,0.4-0.3C63.8,12.6,63.7,12.4,63.5,12.3"/>
</g>
</svg>
