<?xml version="1.0" encoding="utf-8"?>
<!-- Generator: Adobe Illustrator 21.0.2, SVG Export Plug-In . SVG Version: 6.00 Build 0)  -->
<svg version="1.1" id="Capa_1" xmlns="http://www.w3.org/2000/svg" xmlns:xlink="http://www.w3.org/1999/xlink" x="0px" y="0px"
	 viewBox="0 0 514.3 514.3" style="enable-background:new 0 0 514.3 514.3;" xml:space="preserve">
<g>
	<path d="M77.4,297.3c-15.8-65.4,5.3-134,55.1-179l0,0c32.6-29.5,74.8-46.2,118.7-47.2c31.3-0.7,62.1,6.7,89.3,21l-20.9,0.8
		c-6.8,0.3-13.1,3.2-17.7,8.1c-4.6,5-7.1,11.5-6.8,18.4c0.6,13.7,11.8,24.5,25.5,24.5h0.5l89.7-3.3c13.7-0.6,24.5-11.8,24.5-25.5
		v-1.5L432,24.8c-0.3-6.8-3.2-13.1-8.2-17.8c-5-4.6-11.5-7-18.3-6.8c-6.8,0.3-13.1,3.2-17.7,8.1c-4.6,5-7.1,11.5-6.8,18.3l1.2,30.6
		C348,35.1,308.7,22.4,267,20.3c-62.5-3.2-122.4,18.2-168.7,60.2C34.6,138.2,7.6,225.8,27.9,309.3c2.8,11.5,13,19.5,24.8,19.5
		c2.2,0,4.2-0.3,6.2-0.8C72.5,324.5,80.8,310.7,77.4,297.3z"/>
	<path d="M486.4,205L486.4,205c-3.4-13.8-17.3-22.1-30.9-18.7c-13.7,3.4-22,17.3-18.7,30.8c15.9,65.3-5.2,133.9-55.1,179
		c-33.7,30.4-77.3,47.2-122.7,47.2c-32,0-63.3-8.4-90.7-23.9l25.9-2.3c14-1.3,24.3-13.8,23-27.8c-1.3-14-13.8-24.3-27.7-23l-89,8
		c-14,1.3-24.3,13.8-23,27.7l8,88.9C86.8,503.8,97.9,514,111,514c0.6,0,1.7,0,3-0.2c13.7-1.6,23.6-13.9,22.4-27.6l-2.5-28
		c33.8,21.5,72.6,33.8,113.4,35.9c4,0.2,8,0.3,11.9,0.3c57.9,0,113.5-21.5,156.8-60.5C479.6,376.2,506.6,288.5,486.4,205z"/>
</g>
</svg>
